<?xml version="1.0" encoding="utf-8"?>
<!-- Generator: Adobe Illustrator 25.4.1, SVG Export Plug-In . SVG Version: 6.00 Build 0)  -->
<svg version="1.1" xmlns="http://www.w3.org/2000/svg" xmlns:xlink="http://www.w3.org/1999/xlink" x="0px" y="0px"
	 viewBox="0 0 658 158" style="enable-background:new 0 0 658 158;" xml:space="preserve">
<style type="text/css">
	.st0{fill:#FDC700;stroke:#FDC700;stroke-width:4;stroke-miterlimit:10;}
	.st1{display:none;}
	.st2{display:inline;fill:#003C6C;}
	.st3{font-family:'UniversLTPro-65Bold';}
	.st4{font-size:50.4711px;}
	.st5{letter-spacing:-1;}
	.st6{fill:#003C6C;}
</style>
<g id="Layer_1">
	<line class="st0" x1="335.49" y1="30" x2="335.49" y2="130"/>
	<text transform="matrix(1 0 0 1 358.9814 98.292)" class="st1"><tspan x="0" y="0" class="st2 st3 st4 st5">So</tspan><tspan x="62.48" y="0" class="st2 st3 st4">c</tspan><tspan x="87.72" y="0" class="st2 st3 st4 st5">ia</tspan><tspan x="127.79" y="0" class="st2 st3 st4">l </tspan><tspan x="155.85" y="0" class="st2 st3 st4 st5">Scienc</tspan><tspan x="306.86" y="0" class="st2 st3 st4">es</tspan></text>
	<g>
		<path class="st6" d="M49.8,106.61c0,0.63-0.28,1.17-0.85,1.65c-0.58,0.48-1.42,0.73-2.5,0.73c-1.16,0-2.05-0.24-2.63-0.7
			c-0.57-0.45-0.84-0.98-0.84-1.61V55.29h-4.97v49.97c0,0.77,0.15,1.52,0.44,2.22c0.3,0.72,0.8,1.34,1.49,1.86
			c0.67,0.51,1.56,0.92,2.62,1.21c1.06,0.29,2.37,0.44,3.89,0.44c1.56,0,2.89-0.14,3.95-0.41c1.07-0.28,1.94-0.68,2.57-1.19
			c0.64-0.52,1.11-1.13,1.39-1.83c0,0,0,0,0,0c0,0,0,0,0,0c0.27-0.68,0.41-1.41,0.41-2.18v-50.1H49.8V106.61z"/>
		<path class="st6" d="M73.88,106.68c0,0.63-0.25,1.15-0.77,1.59c-0.53,0.44-1.42,0.69-2.64,0.73c-1.06,0-1.92-0.25-2.56-0.74
			c-0.62-0.48-0.92-1.01-0.92-1.64V60.07c0-0.41,0.04-0.82,0.12-1.23c0.08-0.38,0.23-0.71,0.48-1.02c0.24-0.3,0.59-0.53,1.05-0.71
			c0.48-0.18,1.11-0.27,1.88-0.27c0.85,0,1.52,0.11,1.99,0.33c0.46,0.21,0.8,0.46,1,0.73c0.2,0.28,0.34,0.61,0.39,0.98
			c0.06,0.41,0.09,0.81,0.09,1.18v12.38h4.97V61.81c0-0.83-0.07-1.66-0.2-2.47c-0.14-0.85-0.51-1.63-1.1-2.3
			c-0.59-0.66-1.45-1.2-2.57-1.61c-1.1-0.39-2.62-0.59-4.52-0.59c-1.94,0-3.51,0.19-4.64,0.57c-1.16,0.38-2.04,0.92-2.61,1.58
			c-0.57,0.67-0.94,1.44-1.1,2.32c-0.15,0.83-0.23,1.68-0.23,2.51v43.5c0,1.6,0.67,2.96,1.99,4.03c1.32,1.07,3.49,1.61,6.65,1.65
			c1.52,0,2.83-0.15,3.89-0.44c1.07-0.3,1.95-0.71,2.62-1.21c0.69-0.52,1.19-1.15,1.49-1.86l0,0c0.29-0.7,0.44-1.45,0.44-2.22V92.42
			h-5.23V106.68z"/>
		<path class="st6" d="M115.95,90.28c-0.13-0.48-0.29-0.97-0.46-1.44c-0.18-0.48-0.4-1.03-0.65-1.62c-0.48-1.17-1.06-2.28-1.71-3.31
			c-0.65-1.01-1.21-1.88-1.69-2.61l-4.08-6.25c-0.64-0.97-1.16-1.85-1.54-2.61c-0.38-0.75-0.7-1.66-0.95-2.71
			c-0.34-1.21-0.52-2.28-0.54-3.17c-0.02-0.9-0.03-1.96-0.03-3.25v-3.22c0-0.37,0.03-0.77,0.09-1.18c0.06-0.37,0.2-0.7,0.42-0.97
			c0.23-0.28,0.58-0.53,1.05-0.74c0.48-0.22,1.15-0.33,2.01-0.33c0.78,0,1.41,0.09,1.86,0.27c0.44,0.17,0.77,0.41,0.99,0.7
			c0.23,0.3,0.38,0.65,0.46,1.03c0.08,0.41,0.12,0.82,0.12,1.22v12.25h4.97V61.87c0-0.83-0.07-1.67-0.2-2.5
			c-0.14-0.88-0.51-1.66-1.11-2.33c-0.59-0.67-1.47-1.21-2.61-1.61c-1.12-0.39-2.68-0.59-4.64-0.59c-1.91,0-3.44,0.19-4.54,0.57
			c-1.12,0.38-1.99,0.91-2.58,1.57c-0.6,0.67-0.97,1.44-1.11,2.29c-0.13,0.81-0.2,1.64-0.2,2.47v2.64c0,1.16,0.02,2.17,0.06,3.01
			c0.04,0.86,0.22,1.89,0.52,3.06c0.3,1.17,0.62,2.18,0.94,3c0.33,0.84,0.87,1.81,1.6,2.9l4.23,6.51c0.43,0.65,0.81,1.22,1.16,1.71
			c0.33,0.48,0.65,0.97,0.95,1.47c0.29,0.48,0.55,0.99,0.78,1.51c0.23,0.53,0.45,1.11,0.66,1.74c0.25,0.86,0.49,1.62,0.71,2.27
			c0.2,0.61,0.3,1.36,0.3,2.22v11.93c0,0.37-0.03,0.77-0.09,1.18c-0.06,0.38-0.19,0.72-0.4,1.02c-0.2,0.29-0.53,0.55-0.97,0.76
			c-0.45,0.21-1.08,0.32-1.89,0.32c-0.81,0-1.45-0.1-1.9-0.3c-0.45-0.2-0.81-0.45-1.08-0.75c-0.27-0.3-0.43-0.63-0.51-1.01
			c-0.08-0.4-0.12-0.81-0.12-1.22V92.22l-4.97,0.07v11.67c0,0.83,0.08,1.67,0.23,2.48c0.16,0.85,0.53,1.62,1.1,2.31
			c0.57,0.69,1.46,1.25,2.63,1.65c1.15,0.39,2.72,0.59,4.68,0.59c1.92,0,3.45-0.2,4.56-0.6c1.12-0.4,1.98-0.95,2.55-1.61
			c0.57-0.67,0.94-1.43,1.07-2.26c0.13-0.79,0.2-1.61,0.2-2.44V93.72c0-0.69-0.03-1.32-0.1-1.88
			C116.18,91.3,116.08,90.77,115.95,90.28z"/>
		<path class="st6" d="M138.87,57.02c-0.55-0.64-1.4-1.18-2.52-1.58c-1.11-0.4-2.64-0.6-4.56-0.6c-1.96,0-3.54,0.19-4.68,0.57
			c-1.17,0.38-2.06,0.92-2.63,1.58c-0.57,0.67-0.95,1.45-1.11,2.32c-0.15,0.83-0.23,1.68-0.23,2.52v48.79h4.97V82.57h7.02v28.04
			h4.97V61.76c0-0.83-0.07-1.67-0.2-2.48C139.77,58.43,139.42,57.67,138.87,57.02z M135.14,60.07v19.65h-7.02V60.07
			c0-0.41,0.04-0.82,0.12-1.23c0.08-0.38,0.24-0.72,0.48-1.02c0.24-0.3,0.59-0.53,1.05-0.71c0.48-0.18,1.11-0.27,1.88-0.27
			c0.85,0,1.52,0.11,1.99,0.33c0.46,0.21,0.8,0.46,1,0.74c0.2,0.28,0.34,0.61,0.39,0.99C135.1,59.31,135.14,59.71,135.14,60.07z"/>
		<polygon class="st6" points="159.47,85.87 152.06,55.16 147.61,55.16 147.61,110.61 152.59,110.61 152.59,73 159.41,99.88 
			159.41,110.61 164.45,110.61 164.45,55.16 159.47,55.16 		"/>
		<polygon class="st6" points="168.04,57.88 174.23,57.88 174.23,110.61 179.2,110.61 179.2,57.88 185.65,57.88 185.65,55.22 
			168.04,55.22 		"/>
		<path class="st6" d="M205.44,57.02c-0.55-0.64-1.4-1.17-2.52-1.58c-1.11-0.4-2.64-0.6-4.56-0.6c-1.96,0-3.53,0.19-4.68,0.57
			c-1.17,0.38-2.06,0.92-2.63,1.58s-0.95,1.45-1.11,2.32c-0.15,0.83-0.23,1.68-0.23,2.52v48.79h4.97V82.57h7.02v28.04h4.97V61.76
			c0-0.83-0.07-1.67-0.2-2.48C206.34,58.43,205.99,57.67,205.44,57.02z M201.7,60.07v19.65h-7.02V60.07c0-0.41,0.04-0.83,0.12-1.23
			c0.07-0.38,0.24-0.72,0.48-1.02c0.24-0.3,0.59-0.53,1.05-0.71c0.48-0.18,1.11-0.27,1.88-0.27c0.85,0,1.52,0.11,1.99,0.33
			c0.46,0.21,0.8,0.46,1,0.74c0.2,0.28,0.34,0.61,0.39,0.99C201.67,59.31,201.7,59.71,201.7,60.07z"/>
		<path class="st6" d="M237.9,106.68c0,0.63-0.25,1.15-0.77,1.59c-0.53,0.44-1.43,0.69-2.64,0.73c-1.06,0-1.92-0.25-2.56-0.74
			c-0.62-0.48-0.92-1.01-0.92-1.64V60.07c0-0.41,0.04-0.82,0.12-1.23c0.08-0.38,0.23-0.71,0.48-1.02c0.24-0.3,0.6-0.53,1.05-0.71
			c0.48-0.18,1.11-0.27,1.88-0.27c0.85,0,1.52,0.11,1.99,0.33c0.46,0.21,0.8,0.46,1,0.73c0.2,0.28,0.34,0.61,0.39,0.98
			c0.06,0.41,0.09,0.81,0.09,1.18v12.38H243V61.81c0-0.83-0.07-1.66-0.2-2.47c-0.14-0.85-0.51-1.63-1.1-2.3
			c-0.59-0.66-1.45-1.2-2.57-1.61c-1.1-0.39-2.62-0.59-4.52-0.59c-1.94,0-3.51,0.19-4.64,0.57c-1.16,0.38-2.04,0.92-2.61,1.58
			c-0.57,0.67-0.94,1.45-1.1,2.32c-0.15,0.83-0.23,1.68-0.23,2.51v43.5c0,1.6,0.67,2.96,1.99,4.03c1.32,1.07,3.49,1.61,6.65,1.65
			c1.52,0,2.83-0.15,3.89-0.44c1.07-0.3,1.95-0.71,2.62-1.21c0.69-0.52,1.19-1.15,1.49-1.86v0c0.3-0.71,0.44-1.45,0.44-2.22V92.42
			h-5.23V106.68z"/>
		<path class="st6" d="M266.27,85.24c-0.16-0.8-0.63-1.67-1.39-2.56c-0.24-0.28-0.55-0.54-0.92-0.78c-0.35-0.22-0.7-0.41-1.03-0.57
			c-0.16-0.07-0.31-0.14-0.46-0.2c0.24-0.11,0.49-0.23,0.76-0.36c0.4-0.2,0.79-0.42,1.16-0.66c0.39-0.25,0.71-0.52,0.92-0.78
			c0.51-0.51,0.83-0.97,0.98-1.41c0.14-0.42,0.21-0.9,0.21-1.45V62.35c0-1.08-0.07-2.08-0.2-3c-0.14-0.99-0.82-1.87-2.02-2.61
			c-0.67-0.4-1.42-0.69-2.22-0.87c-0.77-0.17-1.53-0.29-2.26-0.36c-0.71-0.07-1.34-0.1-1.86-0.1h-8.29v55.26h4.97V82.44h1.59
			c0.74,0,1.4,0.06,1.98,0.19c0.57,0.12,1.18,0.35,1.83,0.67c0.61,0.34,0.98,0.84,1.15,1.5c0.18,0.73,0.28,1.47,0.28,2.21v23.67h5.1
			l-0.07-22.76C266.5,86.91,266.42,86.01,266.27,85.24z M261.53,60.77v14.63c0,0.7-0.08,1.41-0.25,2.12
			c-0.16,0.67-0.37,1.13-0.61,1.38c-0.4,0.36-1,0.67-1.79,0.93c-0.8,0.27-1.64,0.4-2.51,0.4h-1.74V57.43h2.32
			c1.2,0,2.27,0.17,3.19,0.5c0.59,0.18,0.95,0.49,1.11,0.93C261.43,59.35,261.53,60,261.53,60.77z"/>
		<path class="st6" d="M285.07,106.61c0,0.63-0.28,1.17-0.85,1.65c-0.58,0.48-1.42,0.73-2.5,0.73c-1.16,0-2.05-0.24-2.63-0.7
			c-0.57-0.45-0.84-0.98-0.84-1.61V55.29h-4.97v49.97c0,0.77,0.15,1.52,0.44,2.22c0.3,0.72,0.8,1.34,1.49,1.86
			c0.67,0.51,1.56,0.92,2.62,1.21c1.06,0.29,2.37,0.44,3.89,0.44c1.57,0,2.89-0.14,3.95-0.41c1.07-0.28,1.94-0.68,2.57-1.19
			c0.64-0.52,1.11-1.13,1.39-1.83c0.27-0.68,0.41-1.42,0.41-2.18v-50.1h-4.97V106.61z"/>
		<polygon class="st6" points="301.3,107.77 311.49,55.03 296.07,55.03 296.07,57.88 305.34,57.88 295.22,110.61 312,110.61 
			312,107.77 		"/>
	</g>
</g>
<g id="Layer_1_copy">
	<g>
		<path class="st6" d="M370.19,61.8v14.59h13.78V61.8h7.92v36.49h-7.82v-16h-13.88v16h-7.82V61.8H370.19z"/>
		<path class="st6" d="M405.01,72.8v15.65c0,3.89,1.41,5.15,3.99,5.15c4.59,0,4.79-3.33,4.79-7.52V72.8h7.67v18.17
			c0,0.56,0.05,1.67,0.1,3.38c0.05,1.67,0.1,2.98,0.25,3.94h-7.27l-0.25-3.38c-1.82,2.78-4.34,4.04-7.52,4.04
			c-3.33,0-6.21-1.51-7.57-3.28c-1.36-1.77-1.77-3.84-1.77-6.81V72.8H405.01z"/>
		<path class="st6" d="M458.97,72.3c3.28,0,5.8,1.31,7.22,3.23c1.31,1.82,1.82,3.74,1.82,7.07v15.7h-7.52V82.95
			c0-3.74-1.41-5.4-4.29-5.4c-3.18,0-4.59,2.12-4.59,6.81v13.93h-7.52V82.95c0-2.78-0.61-5.4-4.19-5.4c-2.98,0-4.69,1.56-4.69,5.55
			v15.19h-7.52V77.24c0-0.86-0.05-2.47-0.25-4.44h7.22l0.25,3.28c1.87-2.68,4.49-3.84,7.87-3.84c4.04,0,6.71,1.67,8.03,4.8
			C452.35,74.01,454.98,72.3,458.97,72.3z"/>
		<path class="st6" d="M492.43,74.62c1.62,1.41,2.47,3.58,2.47,6.71l0.05,9.34c0,3.13,0.2,5.65,0.61,7.62h-6.76
			c-0.1-0.66-0.2-1.21-0.2-1.67c-0.05-0.45-0.05-1.06-0.05-1.82c-1.77,2.57-3.99,4.09-7.67,4.09c-1.46,0-3.43-0.2-4.85-0.96
			c-2.12-1.16-3.68-3.68-3.68-6.41c0-3.74,1.72-6.11,4.34-7.62s6.11-1.97,9.89-1.97h1.26v-1.01c0-2.93-1.21-4.49-3.74-4.49
			c-1.31,0-2.42,0.66-2.98,1.77c-0.25,0.56-0.35,1.16-0.35,1.92h-7.32c0.1-6.01,5.05-8.08,10.55-8.08
			C487.28,72.04,490.41,72.85,492.43,74.62z M483.24,94.05c3.13,0,4.59-2.88,4.59-6.46v-1.31l-1.31-0.05
			c-4.59,0-6.92,1.72-6.92,4.19C479.61,92.49,481.12,94.05,483.24,94.05z"/>
		<path class="st6" d="M524.63,98.29h-7.62V81.84c0-2.78-1.67-4.34-3.99-4.34c-2.78,0-4.85,1.77-4.85,5.65v15.14h-7.52V76.49
			c0-0.66-0.05-2.17-0.15-3.79h7.17l0.2,3.84c1.72-2.98,4.64-4.44,8.28-4.44c2.83,0,5.55,1.11,7.02,3.33
			c1.21,1.82,1.46,3.74,1.46,8.43V98.29z"/>
		<path class="st6" d="M538.1,61.85v6.51h-7.98v-6.51H538.1z M537.85,72.75v25.54h-7.47V72.75H537.85z"/>
		<path class="st6" d="M553.5,72.95h6.06v4.95h-6.06v11.56c0,2.78,0.46,3.74,3.43,3.74c0.91,0,1.36,0,2.47-0.15v4.9
			c-2.47,0.66-4.54,0.81-5.8,0.81c-4.95,0-7.52-1.87-7.52-6.66V77.9h-4.9v-4.95h4.9v-5l7.42-2.73V72.95z"/>
		<path class="st6" d="M571.77,61.85v6.51h-7.98v-6.51H571.77z M571.51,72.75v25.54h-7.47V72.75H571.51z"/>
		<path class="st6" d="M599.02,78.86c0.76,1.62,1.21,4.49,1.21,6.97c0,0.76,0,1.01-0.05,1.62h-17.11c0,4.85,1.87,6.81,5.2,6.81
			c2.32,0,3.84-1.16,4.44-3.53h6.81c-0.56,6.11-5.3,8.53-11.31,8.53c-7.92,0-12.32-4.39-12.32-13.12c0-8.38,4.29-13.98,12.47-14.18
			C593.27,71.94,596.85,74.11,599.02,78.86z M592.56,82.75c0-3.63-1.51-5.7-4.44-5.7c-2.78,0-4.59,1.97-4.79,5.7H592.56z"/>
		<path class="st6" d="M624.71,79.72h-6.81c-0.1-1.87-1.21-3.03-3.63-3.03c-2.07,0-3.53,1.01-3.53,2.52c0,1.11,0.61,1.77,1.82,2.17
			c1.21,0.4,3.18,0.96,5.86,1.67c4.34,1.16,7.22,3.08,7.22,7.22c0,4.44-3.79,8.78-11.71,8.78c-5.7,0-10.55-2.52-10.6-8.13h7.02
			c0.1,2.12,1.62,3.48,4.24,3.48c2.37,0,3.94-1.26,3.94-3.03c0-1.87-2.07-2.47-3.68-2.93l-4.19-1.11c-4.34-1.21-6.76-3.13-6.76-7.17
			c0-5.7,5.7-7.98,11.15-7.98C620.07,72.2,624.51,74.47,624.71,79.72z"/>
	</g>
</g>
</svg>
